<svg xmlns="http://www.w3.org/2000/svg" viewBox="0 0 120 150" fill="none" stroke="#2D1E1B" stroke-width="3" stroke-linecap="round" stroke-linejoin="round">
  <!-- straw -->
  <path d="M72 6 64 44" stroke-width="8" stroke="#2D1E1B" />
  <path d="M72 6 64 44" stroke-width="4.5" stroke="#F5E8D3" />
  <path d="M71 11 70 16M69 22 68 27M67 33 66 38" stroke="#C83A2A" stroke-width="4.5" />
  <!-- lemon wheel on the rim -->
  <circle cx="30" cy="34" r="15" fill="#F2D23C" />
  <circle cx="30" cy="34" r="10" fill="#FBEFA0" stroke-width="2" />
  <path d="M30 24v20M20 34h20M23 27l14 14M37 27 23 41" stroke-width="1.5" />
  <!-- legs and sneakers -->
  <path d="M48 124v12M72 124v12" />
  <path d="M40 138c0-3 3-5 8-5h4c2 0 3 2 3 4v2H40Z" fill="#C83A2A" />
  <path d="M65 139v-2c0-2 1-4 3-4h4c5 0 8 2 8 5v1Z" fill="#C83A2A" />
  <!-- arms -->
  <path d="M26 72c-8 2-12 8-13 14" />
  <path d="M94 72c8-2 12-8 12-15" />
  <circle cx="12" cy="89" r="4.5" fill="#FFFFFF" />
  <circle cx="106" cy="55" r="4.5" fill="#FFFFFF" />
  <!-- glass with lemonade -->
  <path d="M22 44h76l-9 80H31Z" fill="#FFFFFF" />
  <path d="M25 56h70l-7.6 66H32.6Z" fill="#F7D84B" stroke="none" />
  <path d="M25 56h70" />
  <!-- ice cubes -->
  <rect x="34" y="60" width="14" height="13" rx="3" fill="#FFF8D6" stroke-width="2" transform="rotate(-10 41 66)" />
  <rect x="73" y="62" width="13" height="12" rx="3" fill="#FFF8D6" stroke-width="2" transform="rotate(12 79 68)" />
  <!-- face -->
  <circle cx="49" cy="88" r="7" fill="#FFFFFF" />
  <circle cx="71" cy="88" r="7" fill="#FFFFFF" />
  <circle cx="50" cy="89" r="3.2" fill="#2D1E1B" stroke="none" />
  <circle cx="70" cy="89" r="3.2" fill="#2D1E1B" stroke="none" />
  <circle cx="51.2" cy="87.6" r="1" fill="#FFFFFF" stroke="none" />
  <circle cx="71.2" cy="87.6" r="1" fill="#FFFFFF" stroke="none" />
  <path d="M51 101c5 6 13 6 18 0" fill="#C83A2A" />
  <circle cx="42" cy="98" r="3.5" fill="#F0A48A" stroke="none" />
  <circle cx="78" cy="98" r="3.5" fill="#F0A48A" stroke="none" />
  <!-- glass shine -->
  <path d="M90 52 84 108" stroke="#FFFFFF" stroke-width="3" opacity="0.8" />
</svg>
