<svg xmlns="http://www.w3.org/2000/svg" viewBox="0 0 400 254" width="400" height="254">
  <defs>
    <filter id="grain" x="0" y="0" width="100%" height="100%">
      <feTurbulence type="fractalNoise" baseFrequency="0.9" numOctaves="2" stitchTiles="stitch"/>
      <feColorMatrix values="0 0 0 0 0.35  0 0 0 0 0.22  0 0 0 0 0.12  0 0 0 0.5 0"/>
    </filter>
  </defs>
  <rect width="400" height="254" fill="#f7e7c9"/>
  <!-- confetti -->
  <g fill="none" stroke-linecap="round" stroke-width="3">
    <path d="M104 74q6-6 12 0t12 0t12 0" stroke="#e9b93a"/>
    <path d="M278 56q6-6 12 0t12 0t12 0" stroke="#d9452b"/>
    <path d="M290 150q5-5 10 0t10 0" stroke="#e98a3a"/>
  </g>
  <circle cx="132" cy="42" r="3.5" fill="#e98a3a"/><circle cx="296" cy="112" r="3" fill="#e9b93a"/>
  <circle cx="118" cy="138" r="3" fill="#d9452b"/><circle cx="312" cy="188" r="3" fill="#e98a3a"/>
  <circle cx="270" cy="34" r="2.5" fill="#e9b93a"/><circle cx="104" cy="186" r="2.5" fill="#e9b93a"/>
  <!-- ground shadow -->
  <ellipse cx="205" cy="236" rx="72" ry="7" fill="#8a5a3a" opacity="0.35"/>

  <!-- arms: rubber-hose, ink outline under a golden stroke -->
  <g fill="none" stroke-linecap="round">
    <path d="M167 128C150 132 142 142 140 154" stroke="#3a2418" stroke-width="13"/>
    <path d="M167 128C150 132 142 142 140 154" stroke="#f2b631" stroke-width="7"/>
    <path d="M233 126C252 120 262 110 263 98" stroke="#3a2418" stroke-width="13"/>
    <path d="M233 126C252 120 262 110 263 98" stroke="#f2b631" stroke-width="7"/>
    <!-- legs -->
    <path d="M190 194C189 204 176 210 167 213" stroke="#3a2418" stroke-width="13"/>
    <path d="M190 194C189 204 176 210 167 213" stroke="#f2b631" stroke-width="7"/>
    <path d="M211 194C216 202 226 204 233 207" stroke="#3a2418" stroke-width="13"/>
    <path d="M211 194C216 202 226 204 233 207" stroke="#f2b631" stroke-width="7"/>
  </g>
  <!-- straw -->
  <path d="M214 98 236 18" stroke="#3a2418" stroke-width="10" stroke-linecap="round"/>
  <path d="M214 98 236 18" stroke="#fff8ec" stroke-width="5.5" stroke-linecap="round"/>
  <path d="M233.8 26 232.2 32M230.6 38 229 44M227.4 50 225.8 56M224.2 62 222.6 68" stroke="#d9452b" stroke-width="5.5"/>
  <!-- glass -->
  <path d="M158 62H242L232 186Q231 196 221 196H179Q169 196 168 186Z" fill="#fdf6e6" stroke="#3a2418" stroke-width="4" stroke-linejoin="round"/>
  <path d="M159.6 82Q180 76 200 82T240.4 82L232 186Q231 196 221 196H179Q169 196 168 186Z" fill="#f6c94a"/>
  <path d="M159.6 82Q180 76 200 82T240.4 82" fill="none" stroke="#3a2418" stroke-width="2.5"/>
  <path d="M168 186Q169 196 179 196H221Q231 196 232 186" fill="none" stroke="#e0a92e" stroke-width="5" opacity="0.6"/>
  <!-- ice and bubbles -->
  <rect x="171" y="88" width="22" height="20" rx="5" fill="#fffbe9" fill-opacity="0.75" stroke="#3a2418" stroke-width="2" transform="rotate(-12 182 98)"/>
  <rect x="206" y="94" width="20" height="18" rx="5" fill="#fffbe9" fill-opacity="0.75" stroke="#3a2418" stroke-width="2" transform="rotate(10 216 103)"/>
  <circle cx="178" cy="170" r="2.5" fill="#fff3b0"/><circle cx="222" cy="160" r="2" fill="#fff3b0"/><circle cx="205" cy="178" r="1.8" fill="#fff3b0"/>
  <!-- face -->
  <ellipse cx="187" cy="123" rx="9" ry="11" fill="#fff" stroke="#3a2418" stroke-width="2.5"/>
  <ellipse cx="213" cy="123" rx="9" ry="11" fill="#fff" stroke="#3a2418" stroke-width="2.5"/>
  <circle cx="190" cy="125" r="5" fill="#5a3320"/><circle cx="216" cy="125" r="5" fill="#5a3320"/>
  <circle cx="191.6" cy="123" r="1.8" fill="#fff"/><circle cx="217.6" cy="123" r="1.8" fill="#fff"/>
  <path d="M178 106Q187 100 196 105M204 105Q213 100 222 106" fill="none" stroke="#3a2418" stroke-width="3" stroke-linecap="round"/>
  <path d="M189 142Q200 154 211 142Z" fill="#b8432c" stroke="#3a2418" stroke-width="2.5" stroke-linejoin="round"/>
  <ellipse cx="175" cy="140" rx="6" ry="4" fill="#f08a6b" opacity="0.7"/>
  <ellipse cx="225" cy="140" rx="6" ry="4" fill="#f08a6b" opacity="0.7"/>
  <!-- glass shine -->
  <path d="M234 72 227 168" stroke="#fff" stroke-width="4" stroke-linecap="round" opacity="0.7"/>
  <!-- lemon wheel on the rim -->
  <circle cx="163" cy="60" r="19" fill="#f4c430" stroke="#3a2418" stroke-width="3.5"/>
  <circle cx="163" cy="60" r="13" fill="#fbe38a" stroke="#e8b32a" stroke-width="1.5"/>
  <path d="M163 47v26M150 60h26M154 51l18 18M172 51 154 69" stroke="#f4c430" stroke-width="1.6"/>
  <!-- gloves -->
  <g fill="#fffaf2" stroke="#3a2418" stroke-width="3" stroke-linejoin="round">
    <path d="M131 152h14l1 6h-16Z"/>
    <path d="M128 158c-2 10 4 18 12 18s14-6 13-14c0-3-2-5-5-5h-16c-2 0-3 0-4 1Z"/>
    <path d="M257 101h12l1 -6h-14Z"/>
    <path d="M254 95c-4-6-2-16 6-18 3-6 12-5 13 1 5 1 6 9 1 12-2 3-6 5-11 5h-9Z"/>
  </g>
  <!-- sneakers -->
  <g stroke="#3a2418" stroke-width="3" stroke-linejoin="round">
    <path d="M154 208h15l2 7c10 1 17 5 17 12H154Z" fill="#d9452b"/>
    <path d="M176 216c7 1 12 5 12 11h-12Z" fill="#fff7ea"/>
    <rect x="151" y="227" width="40" height="6" rx="3" fill="#fff7ea"/>
    <path d="M159 213h8M159 218h8" fill="none" stroke-width="2"/>
    <path d="M226 200h15l2 7c10 1 17 5 17 12H226Z" fill="#d9452b"/>
    <path d="M248 208c7 1 12 5 12 11h-12Z" fill="#fff7ea"/>
    <rect x="223" y="219" width="40" height="6" rx="3" fill="#fff7ea"/>
    <path d="M231 205h8M231 210h8" fill="none" stroke-width="2"/>
  </g>

  <rect width="400" height="254" filter="url(#grain)" opacity="0.18"/>
</svg>
